<?xml version="1.0" encoding="utf-8"?>
<!-- Generator: Adobe Illustrator 16.0.0, SVG Export Plug-In . SVG Version: 6.00 Build 0)  -->
<!DOCTYPE svg PUBLIC "-//W3C//DTD SVG 1.1//EN" "http://www.w3.org/Graphics/SVG/1.1/DTD/svg11.dtd">
<svg version="1.1" id="Layer_1" xmlns="http://www.w3.org/2000/svg" xmlns:xlink="http://www.w3.org/1999/xlink" x="0px" y="0px"
	 width="28px" height="28px" viewBox="0 0 28 28" enable-background="new 0 0 28 28" xml:space="preserve">
<path fill="#EACB5F" d="M14.007,1.553c6.849,0,12.422,5.572,12.422,12.423c0,6.848-5.573,12.42-12.422,12.42
	c-6.85,0-12.421-5.572-12.421-12.42C1.586,7.125,7.157,1.553,14.007,1.553 M14.007,0.008c-7.712,0-13.966,6.254-13.966,13.968
	c0,7.711,6.254,13.965,13.966,13.965s13.967-6.254,13.967-13.965C27.974,6.262,21.719,0.008,14.007,0.008L14.007,0.008z"/>
<polygon fill="#EACB5F" points="14.983,13 14.983,6.055 12.983,6.055 12.983,13 6.045,13 6.045,15 12.983,15 12.983,21.931 
	14.983,21.931 14.983,15 21.92,15 21.92,13 "/>
</svg>
