<?xml version="1.0" encoding="utf-8"?>
<!-- Generator: Adobe Illustrator 16.0.0, SVG Export Plug-In . SVG Version: 6.00 Build 0)  -->
<!DOCTYPE svg PUBLIC "-//W3C//DTD SVG 1.1//EN" "http://www.w3.org/Graphics/SVG/1.1/DTD/svg11.dtd">
<svg version="1.1" id="Layer_1" xmlns="http://www.w3.org/2000/svg" xmlns:xlink="http://www.w3.org/1999/xlink" x="0px" y="0px"
	 width="43px" height="43px" viewBox="0 0 43 43" enable-background="new 0 0 43 43" xml:space="preserve">
<g>
	<path fill="#EACB5F" d="M21.499,1.041c11.281,0,20.459,9.178,20.459,20.459S32.78,41.959,21.499,41.959S1.04,32.781,1.04,21.5
		S10.218,1.041,21.499,1.041 M21.499,0.041C9.649,0.041,0.04,9.649,0.04,21.5s9.609,21.459,21.459,21.459
		c11.851,0,21.459-9.608,21.459-21.459S33.35,0.041,21.499,0.041L21.499,0.041z"/>
</g>
<polygon fill="#EACB5F" stroke="#EACB5F" stroke-miterlimit="10" points="30.193,21.42 22.426,14.461 22.426,19.78 16.488,14.461 
	16.488,28.297 22.426,23.04 22.426,28.297 "/>
</svg>
