<?xml version="1.0" encoding="utf-8"?>
<!-- Generator: Adobe Illustrator 16.0.0, SVG Export Plug-In . SVG Version: 6.00 Build 0)  -->
<!DOCTYPE svg PUBLIC "-//W3C//DTD SVG 1.1//EN" "http://www.w3.org/Graphics/SVG/1.1/DTD/svg11.dtd">
<svg version="1.1" id="Layer_1" xmlns="http://www.w3.org/2000/svg" xmlns:xlink="http://www.w3.org/1999/xlink" x="0px" y="0px"
	 width="300px" height="300px" viewBox="0 0 300 300" enable-background="new 0 0 300 300" xml:space="preserve">
<polygon fill="#ECC85E" points="158.768,236.629 248.844,162.131 149.18,83.528 "/>
<path fill="#645224" d="M149.18,83.528L72.24,22.843c-2.867,1.761-5.739,3.508-8.47,5.451c-0.171,0.12-0.329,0.25-0.499,0.374
	c-3.595,2.573-7.068,5.293-10.417,8.166c-0.341,0.294-0.659,0.612-0.994,0.909c-3.14,2.742-6.183,5.597-9.078,8.589
	c-0.519,0.54-0.994,1.113-1.506,1.652c-2.657,2.828-5.238,5.723-7.67,8.754c-0.673,0.841-1.281,1.732-1.94,2.588
	c-2.175,2.828-4.31,5.695-6.279,8.681c-0.777,1.176-1.459,2.419-2.204,3.623c-1.726,2.776-3.44,5.558-4.985,8.455
	c-0.822,1.548-1.521,3.174-2.292,4.757c-1.301,2.661-2.63,5.308-3.77,8.056c-0.818,1.97-1.477,4.02-2.209,6.035
	c-0.909,2.475-1.879,4.923-2.657,7.461c-0.75,2.44-1.294,4.961-1.918,7.458c-0.558,2.215-1.21,4.395-1.664,6.643
	c-0.614,3.038-0.988,6.154-1.415,9.254c-0.249,1.811-0.619,3.577-0.806,5.405c-0.493,4.968-0.76,10.004-0.76,15.101
	c0,63.129,39.111,117.022,94.38,139.049l63.681-52.675L149.18,83.528z"/>
<path fill="#645224" d="M149.18,83.528l99.664,78.603l48.586-40.196c0.885,4.577,1.568,9.214,2.043,13.917
	C292.221,59.917,228.305,0.509,150.453,0.509c-2.175,0-4.3,0.232-6.45,0.324L149.18,83.528z"/>
<path fill="#29220A" d="M143.955,0.839c-19.682,0.845-38.371,5.506-55.375,13.216c-0.738,0.34-1.448,0.714-2.18,1.062
	c-2.958,1.402-5.848,2.912-8.691,4.497c-1.318,0.738-2.642,1.47-3.936,2.249c-0.523,0.311-1.016,0.663-1.534,0.98l76.94,60.686
	l-5.177-82.695C143.985,0.839,143.973,0.839,143.955,0.839z"/>
<path fill="#645224" d="M292.742,196.752l-43.898-34.621l-90.076,74.498l3.93,62.755c-4.043,0.32-8.109,0.616-12.245,0.616
	c69.254,0,127.358-47.077,144.479-110.935C294.24,191.643,293.57,194.23,292.742,196.752z"/>
<path fill="#29220A" d="M158.768,236.629l-63.681,52.675c0.023,0.012,0.046,0.022,0.068,0.022
	c8.503,3.383,17.379,6.041,26.551,7.857c0.899,0.172,1.829,0.25,2.738,0.408c3.725,0.673,7.471,1.282,11.292,1.66
	c4.843,0.474,9.747,0.748,14.717,0.748c4.135,0,8.202-0.296,12.245-0.616L158.768,236.629z"/>
<path fill="#29220A" d="M248.844,162.131l43.898,34.621c0.828-2.521,1.498-5.109,2.189-7.687c0.479-1.761,0.957-3.521,1.365-5.303
	c0.52-2.26,0.977-4.545,1.383-6.837c0.455-2.485,0.84-5.007,1.156-7.55c0.238-1.807,0.504-3.613,0.662-5.429
	c0.41-4.518,0.701-9.073,0.701-13.693c0-4.858-0.271-9.659-0.727-14.403c-0.475-4.703-1.158-9.34-2.043-13.917L248.844,162.131z"/>
</svg>
