<?xml version="1.0" encoding="utf-8"?>
<!-- Generator: Adobe Illustrator 16.0.0, SVG Export Plug-In . SVG Version: 6.00 Build 0)  -->
<!DOCTYPE svg PUBLIC "-//W3C//DTD SVG 1.1//EN" "http://www.w3.org/Graphics/SVG/1.1/DTD/svg11.dtd">
<svg version="1.1" id="Layer_1" xmlns="http://www.w3.org/2000/svg" xmlns:xlink="http://www.w3.org/1999/xlink" x="0px" y="0px"
	 width="300px" height="300px" viewBox="0 0 300 300" enable-background="new 0 0 300 300" xml:space="preserve">
<g>
	<path fill="#1E1F1F" stroke="#1E1F1F" stroke-width="0.3" stroke-linejoin="round" stroke-miterlimit="10" d="M154.815,130.246
		L14.569,73.936c-7.364,16.321-11.95,33.789-13.563,51.646l125.233,50.281l-18.584,114.771c16.739,5.807,34.405,8.841,52.24,8.889
		l20.171-124.584L154.815,130.246z"/>
	<path fill="#1E1F1F" stroke="#1E1F1F" stroke-width="0.3" stroke-linejoin="round" stroke-miterlimit="10" d="M81.577,0.601
		C60.446,12.542,43.094,28.583,29.921,47.148L130.75,87.633L81.577,0.601z"/>
	<path fill="#1E1F1F" stroke="#1E1F1F" stroke-width="0.3" stroke-linejoin="round" stroke-miterlimit="10" d="M238.768,278.878
		l-34.637-61.326l-12.773,78.928C207.582,293.236,223.573,287.456,238.768,278.878z"/>
	<path fill="#1E1F1F" stroke="#1E1F1F" stroke-width="0.3" stroke-linejoin="round" stroke-miterlimit="10" d="M1.472,158.703
		c2.43,20.393,8.832,40.643,19.568,59.626c14.28,25.31,34.471,45.178,57.809,58.956l13.309-82.166L1.472,158.703z"/>
</g>
</svg>
