<?xml version="1.0" encoding="utf-8"?>
<!-- Generator: Adobe Illustrator 16.0.0, SVG Export Plug-In . SVG Version: 6.00 Build 0)  -->
<!DOCTYPE svg PUBLIC "-//W3C//DTD SVG 1.1//EN" "http://www.w3.org/Graphics/SVG/1.1/DTD/svg11.dtd">
<svg version="1.1" id="Layer_1" xmlns="http://www.w3.org/2000/svg" xmlns:xlink="http://www.w3.org/1999/xlink" x="0px" y="0px"
	 width="62px" height="62px" viewBox="0 0 62 62" enable-background="new 0 0 62 62" xml:space="preserve">
<g>
	<g>
		<path fill="#EACB5F" d="M31.112,1.25c16.466,0,29.861,13.396,29.861,29.863c0,16.466-13.396,29.862-29.861,29.862
			c-16.466,0-29.863-13.396-29.863-29.862C1.25,14.646,14.646,1.25,31.112,1.25 M31.112,0.25C14.068,0.25,0.25,14.067,0.25,31.113
			c0,17.045,13.818,30.862,30.863,30.862c17.045,0,30.861-13.817,30.861-30.862C61.974,14.067,48.157,0.25,31.112,0.25L31.112,0.25z
			"/>
	</g>
	<polygon fill="#EACB5F" stroke="#EACB5F" stroke-miterlimit="10" points="24.974,16.843 24.974,45.218 40.902,31.113 	"/>
</g>
</svg>
