<?xml version="1.0" encoding="utf-8"?>
<!-- Generator: Adobe Illustrator 16.0.0, SVG Export Plug-In . SVG Version: 6.00 Build 0)  -->
<!DOCTYPE svg PUBLIC "-//W3C//DTD SVG 1.1//EN" "http://www.w3.org/Graphics/SVG/1.1/DTD/svg11.dtd">
<svg version="1.1" id="Layer_1" xmlns="http://www.w3.org/2000/svg" xmlns:xlink="http://www.w3.org/1999/xlink" x="0px" y="0px"
	 width="204.09px" height="177.17px" viewBox="0 0 204.09 177.17" enable-background="new 0 0 204.09 177.17" xml:space="preserve">
<g opacity="0.6">
	<g>
		<path fill="#D0B768" d="M155.864,159H138v-36h17.864c7.388,0,13.136-5.318,13.136-12.703V48.116C169,40.729,163.252,35,155.864,35
			H48.118C40.73,35,35,40.729,35,48.116v62.181C35,117.682,40.73,123,48.118,123H72v36H48.118C21.585,159,0,136.828,0,110.297
			V48.116C0,21.585,21.585,0,48.118,0h107.747C182.396,0,204,21.585,204,48.116v62.181C204,136.828,182.396,159,155.864,159z"/>
	</g>
	<g>
		<polygon fill="#D0B768" points="142,177.111 104.187,140.899 142,104.683 		"/>
	</g>
</g>
</svg>
