<?xml version="1.0" encoding="utf-8"?>
<!-- Generator: Adobe Illustrator 16.0.0, SVG Export Plug-In . SVG Version: 6.00 Build 0)  -->
<!DOCTYPE svg PUBLIC "-//W3C//DTD SVG 1.1//EN" "http://www.w3.org/Graphics/SVG/1.1/DTD/svg11.dtd">
<svg version="1.1" id="Layer_1" xmlns="http://www.w3.org/2000/svg" xmlns:xlink="http://www.w3.org/1999/xlink" x="0px" y="0px"
	 width="204.09px" height="177.17px" viewBox="0 0 204.09 177.17" enable-background="new 0 0 204.09 177.17" xml:space="preserve">
<g>
	<g>
		<path fill="#ECC85E" d="M156.209,159H139v-35h17.209c7.404,0,13.791-6.059,13.791-13.46V48.222C170,40.82,163.613,35,156.209,35
			H48.224C40.82,35,35,40.82,35,48.222v62.318c0,7.401,5.82,13.46,13.224,13.46H72v35H48.224C21.633,159,0,137.131,0,110.54V48.222
			C0,21.633,21.633,0,48.224,0h107.985C182.8,0,204,21.633,204,48.222v62.318C204,137.131,182.8,159,156.209,159z"/>
	</g>
	<g>
		<polygon fill="#ECC85E" points="141,177.503 103.104,141.211 141,104.914 		"/>
	</g>
</g>
</svg>
