<?xml version="1.0" encoding="utf-8"?>
<!-- Generator: Adobe Illustrator 16.0.0, SVG Export Plug-In . SVG Version: 6.00 Build 0)  -->
<!DOCTYPE svg PUBLIC "-//W3C//DTD SVG 1.1//EN" "http://www.w3.org/Graphics/SVG/1.1/DTD/svg11.dtd">
<svg version="1.1" id="Layer_1" xmlns="http://www.w3.org/2000/svg" xmlns:xlink="http://www.w3.org/1999/xlink" x="0px" y="0px"
	 width="204.09px" height="177.17px" viewBox="0 0 204.09 177.17" enable-background="new 0 0 204.09 177.17" xml:space="preserve">
<g>
	<g>
		<path fill="#ECC85E" d="M155.771,158H139v-34h16.771c7.383,0,13.229-6.39,13.229-13.771V48.086C169,40.706,163.153,35,155.771,35
			H48.087C40.706,35,35,40.706,35,48.086v62.143C35,117.61,40.706,124,48.087,124H54v34h-5.913C21.572,158,0,136.745,0,110.229
			V48.086C0,21.573,21.572,0,48.087,0h107.683C182.286,0,204,21.573,204,48.086v62.143C204,136.745,182.286,158,155.771,158z"/>
	</g>
	<g>
		<polygon fill="#ECC85E" points="147,177.004 109.212,140.813 147,104.619 		"/>
	</g>
	<g>
		<path fill="#E9CA60" d="M82.119,171.599c-0.573,0-0.963-0.118-1.17-0.352c-0.209-0.234-0.313-0.665-0.313-1.287v-44.552
			l-4.763,4.579c-0.833,0.779-1.483,0.857-1.952,0.232l-4.606-5.23c-0.313-0.364-0.403-0.69-0.273-0.975
			c0.129-0.288,0.43-0.64,0.898-1.055l12.023-11.242c0.572-0.47,1.197-0.703,1.874-0.703h5.154c1.144,0,1.82,0.13,2.029,0.39
			c0.208,0.261,0.313,1.042,0.313,2.343v56.213c0,0.571-0.105,0.987-0.313,1.249c-0.208,0.259-0.598,0.39-1.17,0.39H82.119z"/>
	</g>
</g>
</svg>
